<?xml version="1.0" encoding="UTF-8" standalone="no"?>
<svg width="165px" height="40px" viewBox="0 0 165 40" version="1.1" xmlns="http://www.w3.org/2000/svg" xmlns:xlink="http://www.w3.org/1999/xlink" xmlns:sketch="http://www.bohemiancoding.com/sketch/ns">
    <!-- Generator: Sketch 3.5.2 (25235) - http://www.bohemiancoding.com/sketch -->
    <title>watch-video</title>
    <desc>Created with Sketch.</desc>
    <defs></defs>
    <g id="Page-1" stroke="none" stroke-width="1" fill="none" fill-rule="evenodd" sketch:type="MSPage">
        <g id="watch-video" sketch:type="MSArtboardGroup">
            <rect id="bg" stroke="#A6A6A6" fill="#242424" sketch:type="MSShapeGroup" x="0" y="0" width="165" height="40" rx="9"></rect>
            <g id="Group-3-Copy-2" sketch:type="MSLayerGroup" transform="translate(38.000000, 6.000000)" fill="#FFFFFF">
                <path d="M5.74526651,16.875443 C5.17867851,16.875443 4.68913394,16.9897529 4.27661811,17.2183761 C3.86410229,17.4469994 3.52862758,17.7526541 3.27018393,18.1353495 C3.01174028,18.5180449 2.82039545,18.9529195 2.6961437,19.4399864 C2.57189194,19.9270533 2.509767,20.4240528 2.509767,20.931 C2.509767,21.4379472 2.57189194,21.9349467 2.6961437,22.4220136 C2.82039545,22.9090805 3.01174028,23.3439551 3.27018393,23.7266505 C3.52862758,24.1093459 3.86410229,24.4150006 4.27661811,24.6436239 C4.68913394,24.8722471 5.17867851,24.986557 5.74526651,24.986557 C6.31185451,24.986557 6.80139908,24.8722471 7.2139149,24.6436239 C7.62643073,24.4150006 7.96190543,24.1093459 8.22034908,23.7266505 C8.47879273,23.3439551 8.67013756,22.9090805 8.79438932,22.4220136 C8.91864107,21.9349467 8.98076602,21.4379472 8.98076602,20.931 C8.98076602,20.4240528 8.91864107,19.9270533 8.79438932,19.4399864 C8.67013756,18.9529195 8.47879273,18.5180449 8.22034908,18.1353495 C7.96190543,17.7526541 7.62643073,17.4469994 7.2139149,17.2183761 C6.80139908,16.9897529 6.31185451,16.875443 5.74526651,16.875443 L5.74526651,16.875443 Z M5.74526651,15.3546091 C6.54047774,15.3546091 7.25367211,15.503709 7.88487102,15.8019132 C8.51606993,16.1001174 9.05034446,16.5026871 9.48771064,17.0096342 C9.92507682,17.5165814 10.2605515,18.1080109 10.4941448,18.7839404 C10.7277381,19.45987 10.844533,20.1755493 10.844533,20.931 C10.844533,21.6963908 10.7277381,22.4170402 10.4941448,23.0929697 C10.2605515,23.7688993 9.92507682,24.3603287 9.48771064,24.8672759 C9.05034446,25.3742231 8.51606993,25.7743077 7.88487102,26.0675418 C7.25367211,26.360776 6.54047774,26.5073909 5.74526651,26.5073909 C4.95005528,26.5073909 4.23686091,26.360776 3.60566199,26.0675418 C2.97446308,25.7743077 2.44018855,25.3742231 2.00282237,24.8672759 C1.5654562,24.3603287 1.22998149,23.7688993 0.996388196,23.0929697 C0.762794897,22.4170402 0.646,21.6963908 0.646,20.931 C0.646,20.1755493 0.762794897,19.45987 0.996388196,18.7839404 C1.22998149,18.1080109 1.5654562,17.5165814 2.00282237,17.0096342 C2.44018855,16.5026871 2.97446308,16.1001174 3.60566199,15.8019132 C4.23686091,15.503709 4.95005528,15.3546091 5.74526651,15.3546091 L5.74526651,15.3546091 Z M11.5453094,18.5453782 L13.3941663,18.5453782 L15.3473941,24.4647022 L15.3772144,24.4647022 L17.2558915,18.5453782 L19.0152875,18.5453782 L16.2569124,26.2539185 L14.348415,26.2539185 L11.5453094,18.5453782 Z M25.3371852,21.7212372 C25.3173049,21.4528534 25.26015,21.1944136 25.1657186,20.9459101 C25.0712873,20.6974066 24.9420674,20.4812118 24.7780551,20.2973192 C24.6140428,20.1134266 24.415243,19.9643268 24.1816497,19.8500151 C23.9480564,19.7357035 23.6871316,19.6785486 23.3988675,19.6785486 C23.1006633,19.6785486 22.8297985,19.7307335 22.5862651,19.835105 C22.3427317,19.9394765 22.1339919,20.0836064 21.9600394,20.2674989 C21.7860869,20.4513915 21.6469271,20.6675864 21.5425556,20.9160899 C21.4381841,21.1645934 21.3810292,21.4329731 21.371089,21.7212372 L25.3371852,21.7212372 Z M21.371089,22.8394974 C21.371089,23.1377016 21.413334,23.4259614 21.4978252,23.7042853 C21.5823164,23.9826092 21.7090513,24.226139 21.8780336,24.434882 C22.047016,24.6436249 22.2607258,24.8101198 22.5191695,24.9343715 C22.7776131,25.0586233 23.0857529,25.1207482 23.4435979,25.1207482 C23.9406049,25.1207482 24.3406896,25.0138933 24.6438639,24.8001803 C24.9470382,24.5864673 25.173173,24.2659026 25.3222751,23.8384765 L26.9325697,23.8384765 C26.8431085,24.2559624 26.6890386,24.6287121 26.4703555,24.9567367 C26.2516724,25.2847613 25.9882627,25.5605961 25.6801183,25.7842493 C25.371974,26.0079024 25.0265593,26.1768823 24.6438639,26.2911939 C24.2611685,26.4055055 23.8610838,26.4626605 23.4435979,26.4626605 C22.8372494,26.4626605 22.3004898,26.3632605 21.8333032,26.1644577 C21.3661166,25.9656549 20.971002,25.6873352 20.6479474,25.3294901 C20.3248929,24.9716451 20.0813631,24.5442254 19.9173508,24.0472184 C19.7533384,23.5502114 19.6713335,23.0035119 19.6713335,22.4071035 C19.6713335,21.8603957 19.7583084,21.3410312 19.9322609,20.8489943 C20.1062134,20.3569573 20.3547131,19.9245677 20.6777677,19.5518124 C21.0008223,19.1790572 21.3909669,18.8833424 21.8482134,18.6646593 C22.3054598,18.4459762 22.8223394,18.3366363 23.3988675,18.3366363 C24.0052161,18.3366363 24.5494306,18.4633712 25.0315274,18.7168448 C25.5136242,18.9703184 25.9137089,19.3057931 26.2317934,19.723279 C26.5498778,20.1407649 26.7809826,20.6203695 26.9251147,21.1621071 C27.0692467,21.7038448 27.1065217,22.2629693 27.0369407,22.8394974 L21.371089,22.8394974 Z M28.3341225,18.5453782 L29.9295071,18.5453782 L29.9295071,20.0363918 L29.9593274,20.0363918 C30.0090281,19.8276489 30.105943,19.6238791 30.250075,19.4250763 C30.394207,19.2262735 30.5681569,19.0448686 30.7719298,18.8808563 C30.9757026,18.716844 31.2018374,18.5851391 31.450341,18.4857377 C31.6988445,18.3863363 31.9523142,18.3366363 32.2107579,18.3366363 C32.4095607,18.3366363 32.5462356,18.3416063 32.6207866,18.3515465 C32.6953377,18.3614866 32.7723726,18.3714266 32.8518937,18.3813667 L32.8518937,20.0214817 C32.732612,20.0016014 32.6108472,19.9842064 32.4865954,19.9692962 C32.3623436,19.954386 32.2405788,19.946931 32.1212971,19.946931 C31.833033,19.946931 31.5621682,20.004086 31.3086947,20.1183976 C31.0552211,20.2327092 30.8340563,20.4016891 30.6451936,20.6253422 C30.4563309,20.8489954 30.3072311,21.1248301 30.1978895,21.4528548 C30.088548,21.7808794 30.033878,22.1585991 30.033878,22.5860251 L30.033878,26.2539185 L28.3341225,26.2539185 L28.3341225,18.5453782 Z M32.8220735,18.5453782 L34.6709303,18.5453782 L36.6241581,24.4647022 L36.6539784,24.4647022 L38.5326555,18.5453782 L40.2920516,18.5453782 L37.5336764,26.2539185 L35.625179,26.2539185 L32.8220735,18.5453782 Z M41.3655814,15.6080815 L43.0653369,15.6080815 L43.0653369,17.2183761 L41.3655814,17.2183761 L41.3655814,15.6080815 Z M41.3655814,18.5453782 L43.0653369,18.5453782 L43.0653369,26.2539185 L41.3655814,26.2539185 L41.3655814,18.5453782 Z M50.207292,21.7212372 C50.1874117,21.4528534 50.1302568,21.1944136 50.0358255,20.9459101 C49.9413941,20.6974066 49.8121742,20.4812118 49.6481619,20.2973192 C49.4841496,20.1134266 49.2853498,19.9643268 49.0517565,19.8500151 C48.8181632,19.7357035 48.5572384,19.6785486 48.2689743,19.6785486 C47.9707701,19.6785486 47.6999054,19.7307335 47.4563719,19.835105 C47.2128385,19.9394765 47.0040987,20.0836064 46.8301462,20.2674989 C46.6561938,20.4513915 46.5170339,20.6675864 46.4126624,20.9160899 C46.3082909,21.1645934 46.251136,21.4329731 46.2411959,21.7212372 L50.207292,21.7212372 Z M46.2411959,22.8394974 C46.2411959,23.1377016 46.2834408,23.4259614 46.367932,23.7042853 C46.4524232,23.9826092 46.5791581,24.226139 46.7481405,24.434882 C46.9171229,24.6436249 47.1308327,24.8101198 47.3892763,24.9343715 C47.64772,25.0586233 47.9558597,25.1207482 48.3137048,25.1207482 C48.8107118,25.1207482 49.2107964,25.0138933 49.5139707,24.8001803 C49.817145,24.5864673 50.0432798,24.2659026 50.1923819,23.8384765 L51.8026766,23.8384765 C51.7132153,24.2559624 51.5591454,24.6287121 51.3404624,24.9567367 C51.1217793,25.2847613 50.8583695,25.5605961 50.5502252,25.7842493 C50.2420808,26.0079024 49.8966661,26.1768823 49.5139707,26.2911939 C49.1312753,26.4055055 48.7311906,26.4626605 48.3137048,26.4626605 C47.7073562,26.4626605 47.1705967,26.3632605 46.7034101,26.1644577 C46.2362235,25.9656549 45.8411088,25.6873352 45.5180543,25.3294901 C45.1949997,24.9716451 44.9514699,24.5442254 44.7874576,24.0472184 C44.6234453,23.5502114 44.5414403,23.0035119 44.5414403,22.4071035 C44.5414403,21.8603957 44.6284153,21.3410312 44.8023677,20.8489943 C44.9763202,20.3569573 45.22482,19.9245677 45.5478745,19.5518124 C45.8709291,19.1790572 46.2610737,18.8833424 46.7183202,18.6646593 C47.1755667,18.4459762 47.6924462,18.3366363 48.2689743,18.3366363 C48.8753229,18.3366363 49.4195374,18.4633712 49.9016342,18.7168448 C50.383731,18.9703184 50.7838157,19.3057931 51.1019002,19.723279 C51.4199847,20.1407649 51.6510895,20.6203695 51.7952215,21.1621071 C51.9393535,21.7038448 51.9766285,22.2629693 51.9070475,22.8394974 L46.2411959,22.8394974 Z M52.503453,18.5453782 L54.3075794,18.5453782 L55.8135032,24.3006907 L55.8433234,24.3006907 L57.2896066,18.5453782 L59.0042723,18.5453782 L60.3909149,24.3006907 L60.4207352,24.3006907 L61.9862995,18.5453782 L63.7158752,18.5453782 L61.3004332,26.2539185 L59.5559473,26.2539185 L58.1245742,20.5284263 L58.094754,20.5284263 L56.678291,26.2539185 L54.8890747,26.2539185 L52.503453,18.5453782 Z M67.9801741,15.6080815 L69.9184918,15.6080815 L72.5874061,24.0323083 L72.6172264,24.0323083 L75.3457813,15.6080815 L77.2393686,15.6080815 L73.6012954,26.2539185 L71.5287865,26.2539185 L67.9801741,15.6080815 Z M78.1041565,15.6080815 L79.803912,15.6080815 L79.803912,17.2183761 L78.1041565,17.2183761 L78.1041565,15.6080815 Z M78.1041565,18.5453782 L79.803912,18.5453782 L79.803912,26.2539185 L78.1041565,26.2539185 L78.1041565,18.5453782 Z M88.914005,26.2539185 L87.3037104,26.2539185 L87.3037104,25.210209 L87.2738901,25.210209 C87.0452669,25.6575153 86.7122772,25.9780801 86.274911,26.1719128 C85.8375448,26.3657455 85.3753352,26.4626605 84.8882683,26.4626605 C84.2819198,26.4626605 83.7526152,26.3558055 83.3003388,26.1420925 C82.8480625,25.9283795 82.4728278,25.6376348 82.1746236,25.2698496 C81.8764194,24.9020644 81.6527696,24.4671898 81.5036675,23.9652127 C81.3545654,23.4632356 81.2800154,22.9239911 81.2800154,22.3474629 C81.2800154,21.6516531 81.3744453,21.0502836 81.563308,20.5433365 C81.7521707,20.0363893 82.0031555,19.6189097 82.3162699,19.290885 C82.6293843,18.9628604 82.987224,18.7218156 83.3897997,18.5677434 C83.7923753,18.4136713 84.2024,18.3366363 84.6198859,18.3366363 C84.8584493,18.3366363 85.101979,18.3590013 85.3504825,18.403732 C85.5989861,18.4484626 85.8375458,18.5205275 86.0661691,18.6199289 C86.2947923,18.7193303 86.5060171,18.8460652 86.6998499,19.0001374 C86.8936826,19.1542096 87.0552074,19.3356144 87.1844293,19.5443574 L87.2142495,19.5443574 L87.2142495,15.6080815 L88.914005,15.6080815 L88.914005,26.2539185 Z M82.9797709,22.4816541 C82.9797709,22.8096788 83.0220159,23.1327285 83.1065071,23.450813 C83.1909983,23.7688975 83.3202182,24.0521872 83.4941706,24.3006907 C83.6681231,24.5491942 83.8892879,24.7479941 84.1576717,24.8970962 C84.4260555,25.0461983 84.7441352,25.1207482 85.1119204,25.1207482 C85.4896457,25.1207482 85.8151804,25.0412283 86.0885343,24.882186 C86.3618881,24.7231438 86.5855379,24.514404 86.7594904,24.2559603 C86.9334429,23.9975167 87.0626627,23.7067719 87.1471539,23.3837174 C87.2316451,23.0606628 87.2738901,22.7301581 87.2738901,22.3921933 C87.2738901,21.5373413 87.0825453,20.8713618 86.6998499,20.3942351 C86.3171544,19.9171084 85.7977899,19.6785486 85.1417406,19.6785486 C84.744135,19.6785486 84.4086603,19.7605535 84.1353065,19.9245658 C83.8619526,20.0885781 83.6383028,20.3022879 83.4643503,20.5657017 C83.2903979,20.8291154 83.166148,21.1273151 83.0915969,21.4603098 C83.0170459,21.7933045 82.9797709,22.1337492 82.9797709,22.4816541 L82.9797709,22.4816541 Z M96.0559602,21.7212372 C96.0360799,21.4528534 95.978925,21.1944136 95.8844936,20.9459101 C95.7900623,20.6974066 95.6608424,20.4812118 95.4968301,20.2973192 C95.3328178,20.1134266 95.1340179,19.9643268 94.9004246,19.8500151 C94.6668313,19.7357035 94.4059066,19.6785486 94.1176425,19.6785486 C93.8194383,19.6785486 93.5485735,19.7307335 93.3050401,19.835105 C93.0615067,19.9394765 92.8527668,20.0836064 92.6788144,20.2674989 C92.5048619,20.4513915 92.365702,20.6675864 92.2613306,20.9160899 C92.1569591,21.1645934 92.0998042,21.4329731 92.089864,21.7212372 L96.0559602,21.7212372 Z M92.089864,22.8394974 C92.089864,23.1377016 92.132109,23.4259614 92.2166002,23.7042853 C92.3010914,23.9826092 92.4278262,24.226139 92.5968086,24.434882 C92.765791,24.6436249 92.9795008,24.8101198 93.2379445,24.9343715 C93.4963881,25.0586233 93.8045279,25.1207482 94.1623729,25.1207482 C94.6593799,25.1207482 95.0594646,25.0138933 95.3626389,24.8001803 C95.6658131,24.5864673 95.8919479,24.2659026 96.04105,23.8384765 L97.6513447,23.8384765 C97.5618835,24.2559624 97.4078136,24.6287121 97.1891305,24.9567367 C96.9704474,25.2847613 96.7070377,25.5605961 96.3988933,25.7842493 C96.090749,26.0079024 95.7453343,26.1768823 95.3626389,26.2911939 C94.9799435,26.4055055 94.5798588,26.4626605 94.1623729,26.4626605 C93.5560244,26.4626605 93.0192648,26.3632605 92.5520782,26.1644577 C92.0848916,25.9656549 91.689777,25.6873352 91.3667224,25.3294901 C91.0436679,24.9716451 90.8001381,24.5442254 90.6361258,24.0472184 C90.4721134,23.5502114 90.3901085,23.0035119 90.3901085,22.4071035 C90.3901085,21.8603957 90.4770834,21.3410312 90.6510359,20.8489943 C90.8249883,20.3569573 91.0734881,19.9245677 91.3965427,19.5518124 C91.7195973,19.1790572 92.1097419,18.8833424 92.5669884,18.6646593 C93.0242348,18.4459762 93.5411144,18.3366363 94.1176425,18.3366363 C94.7239911,18.3366363 95.2682056,18.4633712 95.7503024,18.7168448 C96.2323992,18.9703184 96.6324839,19.3057931 96.9505683,19.723279 C97.2686528,20.1407649 97.4997576,20.6203695 97.6438897,21.1621071 C97.7880217,21.7038448 97.8252967,22.2629693 97.7557157,22.8394974 L92.089864,22.8394974 Z M102.5866,26.4626605 C101.970311,26.4626605 101.421127,26.3607755 100.93903,26.1570027 C100.456933,25.9532298 100.049393,25.672425 99.7163986,25.31458 C99.3834039,24.9567349 99.1299341,24.5293153 98.9559816,24.0323083 C98.7820292,23.5353013 98.6950543,22.9886017 98.6950543,22.3921933 C98.6950543,21.805725 98.7820292,21.2639955 98.9559816,20.7669885 C99.1299341,20.2699815 99.3834039,19.8425619 99.7163986,19.4847168 C100.049393,19.1268718 100.456933,18.846067 100.93903,18.6422941 C101.421127,18.4385212 101.970311,18.3366363 102.5866,18.3366363 C103.202888,18.3366363 103.752073,18.4385212 104.23417,18.6422941 C104.716267,18.846067 105.123806,19.1268718 105.456801,19.4847168 C105.789796,19.8425619 106.043265,20.2699815 106.217218,20.7669885 C106.39117,21.2639955 106.478145,21.805725 106.478145,22.3921933 C106.478145,22.9886017 106.39117,23.5353013 106.217218,24.0323083 C106.043265,24.5293153 105.789796,24.9567349 105.456801,25.31458 C105.123806,25.672425 104.716267,25.9532298 104.23417,26.1570027 C103.752073,26.3607755 103.202888,26.4626605 102.5866,26.4626605 L102.5866,26.4626605 Z M102.5866,25.1207482 C102.964325,25.1207482 103.292345,25.0412283 103.570669,24.882186 C103.848993,24.7231438 104.077612,24.514404 104.256535,24.2559603 C104.435458,23.9975167 104.567162,23.7067719 104.651654,23.3837174 C104.736145,23.0606628 104.77839,22.7301581 104.77839,22.3921933 C104.77839,22.0641687 104.736145,21.736149 104.651654,21.4081244 C104.567162,21.0800997 104.435458,20.789355 104.256535,20.5358814 C104.077612,20.2824078 103.848993,20.076153 103.570669,19.9171108 C103.292345,19.7580685 102.964325,19.6785486 102.5866,19.6785486 C102.208874,19.6785486 101.880855,19.7580685 101.602531,19.9171108 C101.324207,20.076153 101.095587,20.2824078 100.916665,20.5358814 C100.737742,20.789355 100.606037,21.0800997 100.521546,21.4081244 C100.437055,21.736149 100.39481,22.0641687 100.39481,22.3921933 C100.39481,22.7301581 100.437055,23.0606628 100.521546,23.3837174 C100.606037,23.7067719 100.737742,23.9975167 100.916665,24.2559603 C101.095587,24.514404 101.324207,24.7231438 101.602531,24.882186 C101.880855,25.0412283 102.208874,25.1207482 102.5866,25.1207482 L102.5866,25.1207482 Z" id="Overview-Video" sketch:type="MSShapeGroup"></path>
                <path d="M0.928,0.78351535 L1.42442372,0.78351535 L3.47630841,8.141618 L3.49837169,8.141618 L5.5833513,0.78351535 L6.1900914,0.78351535 L8.30816592,8.141618 L8.3302292,8.141618 L10.349019,0.78351535 L10.867506,0.78351535 L8.60602015,8.66010499 L8.05443825,8.66010499 L5.89223717,1.2027176 L5.87017389,1.2027176 L3.74106773,8.66010499 L3.20051746,8.66010499 L0.928,0.78351535 Z M15.1808765,7.5348779 L15.1588132,7.5348779 C15.0926231,7.70403053 14.9970165,7.86398768 14.8719906,8.01475416 C14.7469648,8.16552064 14.594362,8.29973756 14.4141776,8.41740895 C14.2339933,8.53508035 14.0299101,8.62700975 13.8019217,8.69319991 C13.5739334,8.75939007 13.3238854,8.79248465 13.0517703,8.79248465 C12.4487044,8.79248465 11.9817031,8.6619449 11.6507523,8.4008615 C11.3198015,8.13977809 11.1543286,7.73712732 11.1543286,7.19289712 C11.1543286,6.86194632 11.2205177,6.59167389 11.3528981,6.38207171 C11.4852784,6.17246954 11.6525899,6.00699662 11.8548376,5.885648 C12.0570853,5.76429937 12.281393,5.67788574 12.5277675,5.6264045 C12.774142,5.57492326 13.0113199,5.5381515 13.2393082,5.51608812 L13.8901748,5.46092993 C14.1917078,5.43886654 14.4288856,5.40393337 14.6017155,5.35612936 C14.7745454,5.30832536 14.9050851,5.24213619 14.9933386,5.15755988 C15.0815922,5.07298356 15.1367498,4.96450687 15.1588132,4.83212655 C15.1808766,4.69974623 15.1919081,4.53427332 15.1919081,4.33570284 C15.1919081,4.18125913 15.1624907,4.03784927 15.103655,3.90546895 C15.0448193,3.77308863 14.9528899,3.655419 14.8278641,3.55245653 C14.7028382,3.44949406 14.5410425,3.36859619 14.342472,3.30976049 C14.1439015,3.25092479 13.9012079,3.22150738 13.6143839,3.22150738 C13.106926,3.22150738 12.6969209,3.34653136 12.3843562,3.59658308 C12.0717916,3.84663479 11.9008029,4.22538392 11.871385,4.73284181 L11.4521828,4.73284181 C11.4816006,4.10771252 11.6820067,3.63887259 12.0534071,3.32630794 C12.4248074,3.0137433 12.9524822,2.85746332 13.6364472,2.85746332 C14.3204121,2.85746332 14.8186695,2.99168025 15.1312341,3.26011812 C15.4437988,3.52855599 15.6000787,3.87972629 15.6000787,4.31363956 L15.6000787,7.61209937 C15.6000787,7.69299845 15.6019173,7.77389632 15.6055946,7.85479541 C15.6092718,7.93569449 15.6221419,8.00923801 15.6442053,8.07542817 C15.6662687,8.14161833 15.7030404,8.19493738 15.7545217,8.23538692 C15.8060029,8.27583647 15.8795464,8.29606093 15.9751544,8.29606093 C16.0486991,8.29606093 16.15166,8.2850294 16.2840403,8.26296602 L16.2840403,8.61597844 C16.1737234,8.64539629 16.0597309,8.66010499 15.9420595,8.66010499 C15.7729069,8.66010499 15.63869,8.63804194 15.5394047,8.59391516 C15.4401195,8.54978839 15.3647374,8.49095357 15.3132562,8.41740895 C15.2617749,8.34386433 15.2268417,8.2574507 15.2084556,8.15816546 C15.1900694,8.05888022 15.1808765,7.95040353 15.1808765,7.83273213 L15.1808765,7.5348779 Z M15.1808765,5.43886665 C15.077914,5.56389251 14.921634,5.64846756 14.7120319,5.69259433 C14.5024297,5.7367211 14.268929,5.76981569 14.0115228,5.79187907 L13.305498,5.8580689 C13.0995731,5.88013229 12.8936512,5.91138828 12.6877263,5.95183783 C12.4818013,5.99228737 12.2961039,6.06031512 12.1306285,6.15592313 C11.9651531,6.25153114 11.8309362,6.38207089 11.7279738,6.54754629 C11.6250113,6.71302169 11.5735308,6.92813648 11.5735308,7.19289712 C11.5735308,7.61210146 11.7059092,7.92282283 11.9706698,8.12507054 C12.2354304,8.32731825 12.5994708,8.42844059 13.062802,8.42844059 C13.540842,8.42844059 13.9195911,8.34202696 14.1990607,8.16919709 C14.4785303,7.99636723 14.6918065,7.79779973 14.8388957,7.57348863 C14.985985,7.34917754 15.0797529,7.13222416 15.1202025,6.92262198 C15.160652,6.71301981 15.1808765,6.57144854 15.1808765,6.49790391 L15.1808765,5.43886665 Z M19.0198866,3.35388704 L17.7843431,3.35388704 L17.7843431,7.31424514 C17.7843431,7.54223347 17.8100833,7.72241509 17.8615646,7.85479541 C17.9130458,7.98717573 17.9921051,8.08829806 18.0987448,8.15816546 C18.2053845,8.22803285 18.3340856,8.27032037 18.4848521,8.28502929 C18.6356186,8.29973822 18.8102845,8.30341539 19.0088549,8.29606093 L19.0088549,8.66010499 C18.7955755,8.67481392 18.5878151,8.67297533 18.3855674,8.65458917 C18.1833197,8.63620302 18.0049766,8.58104538 17.8505329,8.4891146 C17.6960892,8.39718382 17.5729038,8.25928972 17.480973,8.07542817 C17.3890423,7.89156661 17.3504319,7.63784147 17.3651408,7.31424514 L17.3651408,3.35388704 L16.3171352,3.35388704 L16.3171352,2.98984298 L17.3651408,2.98984298 L17.3651408,1.22478088 L17.7843431,1.22478088 L17.7843431,2.98984298 L19.0198866,2.98984298 L19.0198866,3.35388704 Z M24.0613452,4.74387345 C24.0392818,4.49382173 23.9749312,4.27319118 23.8682915,4.08197516 C23.7616518,3.89075914 23.6237577,3.73264058 23.4546051,3.60761472 C23.2854525,3.48258886 23.0887236,3.38698229 22.8644125,3.32079213 C22.6401014,3.25460197 22.3992463,3.22150738 22.1418402,3.22150738 C21.788826,3.22150738 21.476266,3.29321231 21.2041509,3.43662433 C20.9320358,3.58003634 20.7040509,3.77124949 20.5201894,4.01026951 C20.3363278,4.24928953 20.1965951,4.52140055 20.1009871,4.82661073 C20.0053791,5.13182092 19.9575758,5.44621946 19.9575758,5.7698158 C19.9575758,6.15224783 20.0017019,6.50525672 20.0899555,6.82885306 C20.178209,7.1524494 20.3142645,7.43375336 20.4981261,7.67277338 C20.6819876,7.9117934 20.9099725,8.09749078 21.1820876,8.2298711 C21.4542028,8.36225142 21.7741171,8.42844059 22.1418402,8.42844059 C22.4066008,8.42844059 22.651133,8.38431448 22.8754441,8.29606093 C23.0997552,8.20780739 23.2983227,8.08646058 23.4711526,7.93201687 C23.6439824,7.77757317 23.7855537,7.59187578 23.8958706,7.37491915 C24.0061876,7.15796251 24.0797311,6.92078466 24.1165034,6.66337849 L24.5357056,6.66337849 C24.4915789,7.00168375 24.3996495,7.30321218 24.2599147,7.56797281 C24.1201799,7.83273345 23.9436755,8.0552026 23.7303961,8.23538692 C23.5171167,8.41557125 23.274423,8.55346534 23.0023079,8.64907335 C22.7301928,8.74468136 22.4433731,8.79248465 22.1418402,8.79248465 C21.678509,8.79248465 21.2832126,8.70974819 20.9559391,8.54427279 C20.6286655,8.37879739 20.3602317,8.15632825 20.1506295,7.87685868 C19.9410273,7.59738912 19.7865859,7.27563622 19.6873007,6.91159034 C19.5880154,6.54754447 19.5383736,6.16695675 19.5383736,5.7698158 C19.5383736,5.37267484 19.5953698,4.99760289 19.709364,4.6445887 C19.8233581,4.29157452 19.9906696,3.98269174 20.2113035,3.7179311 C20.4319374,3.45317046 20.7040484,3.24357143 21.0276447,3.08912772 C21.3512411,2.93468402 21.7226358,2.85746332 22.1418402,2.85746332 C22.4507276,2.85746332 22.7393859,2.89607367 23.0078238,2.97329552 C23.2762616,3.05051738 23.5152781,3.16634842 23.7248802,3.32079213 C23.9344824,3.47523583 24.1054711,3.67196475 24.2378514,3.91098477 C24.3702317,4.15000479 24.4511296,4.42763157 24.4805475,4.74387345 L24.0613452,4.74387345 Z M25.9367237,0.78351535 L25.9367237,4.20332318 L25.958787,4.20332318 C26.0323316,3.99004377 26.1371311,3.80066921 26.2731887,3.63519381 C26.4092462,3.46971841 26.5673648,3.32814714 26.7475491,3.21047574 C26.9277334,3.09280435 27.1244623,3.00455213 27.3377417,2.94571643 C27.5510211,2.88688073 27.7679745,2.85746332 27.9886084,2.85746332 C28.3195592,2.85746332 28.6008631,2.89791226 28.8325287,2.97881134 C29.0641943,3.05971043 29.2535688,3.16634853 29.4006581,3.29872885 C29.5477473,3.43110917 29.6635784,3.58003479 29.7481547,3.74551019 C29.832731,3.91098559 29.8934044,4.0782971 29.9301767,4.24744973 C29.966949,4.41660236 29.9890121,4.58023669 29.9963665,4.73835763 C30.003721,4.89647857 30.0073982,5.03437266 30.0073982,5.15204406 L30.0073982,8.66010499 L29.5881959,8.66010499 L29.5881959,5.07482259 C29.5881959,4.93508781 29.5771644,4.75858336 29.555101,4.54530396 C29.5330376,4.33202456 29.468687,4.12794129 29.3620473,3.93304804 C29.2554076,3.73815479 29.0936119,3.57084329 28.8766553,3.43110851 C28.6596986,3.29137373 28.3600088,3.22150738 27.9775768,3.22150738 C27.6539804,3.22150738 27.3671607,3.2803422 27.117109,3.39801359 C26.8670573,3.51568499 26.6537811,3.67931932 26.477274,3.88892149 C26.3007669,4.09852366 26.1665499,4.34857163 26.0746192,4.63907288 C25.9826884,4.92957414 25.9367237,5.24764986 25.9367237,5.59330959 L25.9367237,8.66010499 L25.5175214,8.66010499 L25.5175214,0.78351535 L25.9367237,0.78351535 Z M36.3947167,3.35388704 L35.1591732,3.35388704 L35.1591732,7.31424514 C35.1591732,7.54223347 35.1849134,7.72241509 35.2363947,7.85479541 C35.2878759,7.98717573 35.3669352,8.08829806 35.4735749,8.15816546 C35.5802146,8.22803285 35.7089157,8.27032037 35.8596822,8.28502929 C36.0104487,8.29973822 36.1851145,8.30341539 36.383685,8.29606093 L36.383685,8.66010499 C36.1704056,8.67481392 35.9626452,8.67297533 35.7603975,8.65458917 C35.5581498,8.63620302 35.3798067,8.58104538 35.225363,8.4891146 C35.0709193,8.39718382 34.9477339,8.25928972 34.8558031,8.07542817 C34.7638724,7.89156661 34.725262,7.63784147 34.7399709,7.31424514 L34.7399709,3.35388704 L33.6919653,3.35388704 L33.6919653,2.98984298 L34.7399709,2.98984298 L34.7399709,1.22478088 L35.1591732,1.22478088 L35.1591732,2.98984298 L36.3947167,2.98984298 L36.3947167,3.35388704 Z M37.5861336,0.78351535 L37.5861336,4.20332318 L37.6081969,4.20332318 C37.6817415,3.99004377 37.786541,3.80066921 37.9225985,3.63519381 C38.0586561,3.46971841 38.2167747,3.32814714 38.396959,3.21047574 C38.5771433,3.09280435 38.7738722,3.00455213 38.9871516,2.94571643 C39.200431,2.88688073 39.4173844,2.85746332 39.6380183,2.85746332 C39.9689691,2.85746332 40.250273,2.89791226 40.4819386,2.97881134 C40.7136042,3.05971043 40.9029787,3.16634853 41.050068,3.29872885 C41.1971572,3.43110917 41.3129882,3.58003479 41.3975646,3.74551019 C41.4821409,3.91098559 41.5428143,4.0782971 41.5795866,4.24744973 C41.6163589,4.41660236 41.638422,4.58023669 41.6457764,4.73835763 C41.6531309,4.89647857 41.6568081,5.03437266 41.6568081,5.15204406 L41.6568081,8.66010499 L41.2376058,8.66010499 L41.2376058,5.07482259 C41.2376058,4.93508781 41.2265743,4.75858336 41.2045109,4.54530396 C41.1824475,4.33202456 41.1180969,4.12794129 41.0114572,3.93304804 C40.9048175,3.73815479 40.7430218,3.57084329 40.5260652,3.43110851 C40.3091085,3.29137373 40.0094187,3.22150738 39.6269866,3.22150738 C39.3033903,3.22150738 39.0165706,3.2803422 38.7665189,3.39801359 C38.5164672,3.51568499 38.3031909,3.67931932 38.1266839,3.88892149 C37.9501768,4.09852366 37.8159598,4.34857163 37.7240291,4.63907288 C37.6320983,4.92957414 37.5861336,5.24764986 37.5861336,5.59330959 L37.5861336,8.66010499 L37.1669313,8.66010499 L37.1669313,0.78351535 L37.5861336,0.78351535 Z M43.0578261,5.88013218 L43.0578261,5.94632201 C43.0578261,6.27727281 43.1019522,6.59350994 43.1902058,6.89504289 C43.2784593,7.19657584 43.4089991,7.46133251 43.5818289,7.68932083 C43.7546588,7.91730916 43.9716122,8.09749078 44.2326956,8.2298711 C44.493779,8.36225142 44.797146,8.42844059 45.1428057,8.42844059 C45.7090993,8.42844059 46.1577148,8.27951496 46.4886656,7.98165925 C46.8196164,7.68380353 47.0476013,7.27012123 47.1726271,6.74059995 L47.5918294,6.74059995 C47.4668035,7.40250155 47.1965311,7.90995183 46.781004,8.26296602 C46.3654769,8.6159802 45.8157391,8.79248465 45.1317741,8.79248465 C44.7125697,8.79248465 44.3466907,8.71710254 44.0341261,8.56633607 C43.7215614,8.41556959 43.4604819,8.20964774 43.2508798,7.94856433 C43.0412776,7.68748092 42.8849976,7.37859814 42.7820352,7.02190673 C42.6790727,6.66521531 42.6275922,6.28095042 42.6275922,5.86910054 C42.6275922,5.47195958 42.6809113,5.09137187 42.787551,4.72732599 C42.8941907,4.36328011 43.0541478,4.0433658 43.2674272,3.76757347 C43.4807066,3.49178114 43.7473019,3.27115058 44.067221,3.10567518 C44.3871401,2.94019978 44.7640506,2.85746332 45.1979639,2.85746332 C45.5951049,2.85746332 45.9462752,2.93100684 46.2514854,3.07809609 C46.5566955,3.22518533 46.8122593,3.42559142 47.0181842,3.67932037 C47.2241091,3.93304931 47.3803891,4.22722339 47.4870288,4.56185142 C47.5936685,4.89647945 47.6469876,5.2550041 47.6469876,5.63743614 C47.6469876,5.67420845 47.645149,5.71649597 47.6414718,5.76429998 C47.6377945,5.81210398 47.6359559,5.85071433 47.6359559,5.88013218 L43.0578261,5.88013218 Z M47.2167537,5.51608812 C47.2020448,5.20720071 47.1505643,4.91486522 47.0623108,4.63907288 C46.9740572,4.36328055 46.8435175,4.12058694 46.6706876,3.91098477 C46.4978577,3.70138259 46.2882587,3.53407109 46.0418842,3.40904523 C45.7955097,3.28401937 45.5142058,3.22150738 45.1979639,3.22150738 C44.8596586,3.22150738 44.5618074,3.28585796 44.3044012,3.41456105 C44.046995,3.54326414 43.8300417,3.71241423 43.6535346,3.9220164 C43.4770275,4.13161858 43.340972,4.37615078 43.245364,4.65562034 C43.1497559,4.93508991 43.0909211,5.22190963 43.0688577,5.51608812 L47.2167537,5.51608812 Z" id="Watch-the" sketch:type="MSShapeGroup"></path>
            </g>
            <path d="M20,7 C12.8175,7 7,12.8175 7,20 C7,27.1825 12.8175,33 20,33 C27.1825,33 33,27.1825 33,20 C33,12.8175 27.1825,7 20,7 L20,7 Z M16.75,13.5 L26.5,20 L16.75,26.5 L16.75,13.5 L16.75,13.5 Z" id="Shape" fill="#FFFFFF" sketch:type="MSShapeGroup"></path>
        </g>
    </g>
</svg>